#Comment line ignore any data following # character 
#Hierarchical Translation and Rotation (.htr) file 
[Header]	
#Header keywords are followed by a single value 
FileType HTR		#Single word string
DataType HTRS		#Translation followed by rotation and scale data
FileVersion 1		#integer
NumSegments 84		#integer
NumFrames 2		#integer
DataFrameRate 30		#integer, data frame rate in this file
EulerRotationOrder ZYX
CalibrationUnits mm
RotationUnits Degrees
GlobalAxisofGravity Y
BoneLengthAxis Y
ScaleFactor 1.00
[SegmentNames&Hierarchy]
#CHILD	PARENT
MASTER GLOBAL
root MASTER
chest root
L_mid_tent01 root
R_mid_tent01 root
spine01 root
Bip01_Neck chest
L_humerus chest
R_humerus chest
weapon_bone chest
Bip01_Head Bip01_Neck
eye_left_bone Bip01_Head
eye_right_bone Bip01_Head
L_forearm L_humerus
L_front_hand L_forearm
L_weapon_bone L_forearm
L_front_hand01_01 L_front_hand
L_front_hand02_01 L_front_hand
L_front_hand03_01 L_front_hand
L_front_hand01_02 L_front_hand01_01
L_front_hand02_02 L_front_hand02_01
L_front_hand03_02 L_front_hand03_01
R_forearm R_humerus
R_front_hand R_forearm
R_weapon_bone R_forearm
R_front_hand01_01 R_front_hand
R_front_hand02_01 R_front_hand
R_front_hand03_01 R_front_hand
R_front_hand01_02 R_front_hand01_01
R_front_hand02_02 R_front_hand02_01
R_front_hand03_02 R_front_hand03_01
null_rope01_connect L_mid_tent01
Rope1_Seg01 null_rope01_connect
Rope1_Seg02 Rope1_Seg01
Rope1_Seg03 Rope1_Seg02
Rope1_Seg04 Rope1_Seg03
Rope1_Seg05 Rope1_Seg04
Rope1_Seg06 Rope1_Seg05
Rope1_Seg07 Rope1_Seg06
Rope1_Seg09 Rope1_Seg07
L_mid_hand01 Rope1_Seg09
L_mid_hand02 Rope1_Seg09
L_mid_hand03 Rope1_Seg09
null_rope02_connect R_mid_tent01
Rope2_Seg01 null_rope02_connect
Rope2_Seg02 Rope2_Seg01
Rope2_Seg03 Rope2_Seg02
Rope2_Seg04 Rope2_Seg03
Rope2_Seg05 Rope2_Seg04
Rope2_Seg06 Rope2_Seg05
Rope2_Seg07 Rope2_Seg06
Rope2_Seg09 Rope2_Seg07
R_mid_hand01 Rope2_Seg09
R_mid_hand02 Rope2_Seg09
R_mid_hand03 Rope2_Seg09
spine02 spine01
spine03 spine02
pelvis spine03
null_rope03_connect pelvis
null_rope04_connect pelvis
Rope3_Seg01 null_rope03_connect
Rope3_Seg02 Rope3_Seg01
Rope3_Seg03 Rope3_Seg02
Rope3_Seg04 Rope3_Seg03
Rope3_Seg05 Rope3_Seg04
Rope3_Seg06 Rope3_Seg05
Rope3_Seg07 Rope3_Seg06
Rope3_Seg08 Rope3_Seg07
Rope3_Seg09 Rope3_Seg08
R_rear_hand01 Rope3_Seg09
R_rear_hand02 Rope3_Seg09
R_rear_hand03 Rope3_Seg09
Rope4_Seg01 null_rope04_connect
Rope4_Seg02 Rope4_Seg01
Rope4_Seg03 Rope4_Seg02
Rope4_Seg04 Rope4_Seg03
Rope4_Seg05 Rope4_Seg04
Rope4_Seg06 Rope4_Seg05
Rope4_Seg07 Rope4_Seg06
Rope4_Seg08 Rope4_Seg07
Rope4_Seg09 Rope4_Seg08
L_rear_hand01 Rope4_Seg09
L_rear_hand02 Rope4_Seg09
L_rear_hand03 Rope4_Seg09
[BasePosition]
#SegmentName Tx, Ty, Tz, Rx, Ry, Rz, BoneLength
MASTER 0.000000 0.000000 0.000000 -90.000000 0.000000 0.000000 10.000000 
root 0.000000 0.000000 0.000000 0.000000 0.000000 0.000000 10.000000 
chest 0.000000 0.000000 0.000000 0.000000 0.000000 0.000000 10.000000 
L_mid_tent01 0.000000 0.000000 0.000000 0.000000 0.000000 0.000000 10.000000 
R_mid_tent01 0.000000 0.000000 0.000000 0.000000 0.000000 0.000000 10.000000 
spine01 0.000000 0.000000 0.000000 0.000000 0.000000 0.000000 10.000000 
Bip01_Neck 0.000000 0.000000 0.000000 0.000000 0.000000 0.000000 10.000000 
L_humerus 0.000000 0.000000 0.000000 0.000000 0.000000 0.000000 10.000000 
R_humerus 0.000000 0.000000 0.000000 0.000000 0.000000 0.000000 10.000000 
weapon_bone 0.000000 0.000000 0.000000 0.000000 0.000000 0.000000 10.000000 
Bip01_Head 0.000000 0.000000 0.000000 0.000000 0.000000 0.000000 10.000000 
eye_left_bone 0.000000 0.000000 0.000000 0.000000 0.000000 0.000000 10.000000 
eye_right_bone 0.000000 0.000000 0.000000 0.000000 0.000000 0.000000 10.000000 
L_forearm 0.000000 0.000000 0.000000 0.000000 0.000000 0.000000 10.000000 
L_front_hand 0.000000 0.000000 0.000000 0.000000 0.000000 0.000000 10.000000 
L_weapon_bone 0.000000 0.000000 0.000000 0.000000 0.000000 0.000000 10.000000 
L_front_hand01_01 0.000000 0.000000 0.000000 0.000000 0.000000 0.000000 10.000000 
L_front_hand02_01 0.000000 0.000000 0.000000 0.000000 0.000000 0.000000 10.000000 
L_front_hand03_01 0.000000 0.000000 0.000000 0.000000 0.000000 0.000000 10.000000 
L_front_hand01_02 0.000000 0.000000 0.000000 0.000000 0.000000 0.000000 10.000000 
L_front_hand02_02 0.000000 0.000000 0.000000 0.000000 0.000000 0.000000 10.000000 
L_front_hand03_02 0.000000 0.000000 0.000000 0.000000 0.000000 0.000000 10.000000 
R_forearm 0.000000 0.000000 0.000000 0.000000 0.000000 0.000000 10.000000 
R_front_hand 0.000000 0.000000 0.000000 0.000000 0.000000 0.000000 10.000000 
R_weapon_bone 0.000000 0.000000 0.000000 0.000000 0.000000 0.000000 10.000000 
R_front_hand01_01 0.000000 0.000000 0.000000 0.000000 0.000000 0.000000 10.000000 
R_front_hand02_01 0.000000 0.000000 0.000000 0.000000 0.000000 0.000000 10.000000 
R_front_hand03_01 0.000000 0.000000 0.000000 0.000000 0.000000 0.000000 10.000000 
R_front_hand01_02 0.000000 0.000000 0.000000 0.000000 0.000000 0.000000 10.000000 
R_front_hand02_02 0.000000 0.000000 0.000000 0.000000 0.000000 0.000000 10.000000 
R_front_hand03_02 0.000000 0.000000 0.000000 0.000000 0.000000 0.000000 10.000000 
null_rope01_connect 0.000000 0.000000 0.000000 0.000000 0.000000 0.000000 10.000000 
Rope1_Seg01 0.000000 0.000000 0.000000 0.000000 0.000000 0.000000 10.000000 
Rope1_Seg02 0.000000 0.000000 0.000000 0.000000 0.000000 0.000000 10.000000 
Rope1_Seg03 0.000000 0.000000 0.000000 0.000000 0.000000 0.000000 10.000000 
Rope1_Seg04 0.000000 0.000000 0.000000 0.000000 0.000000 0.000000 10.000000 
Rope1_Seg05 0.000000 0.000000 0.000000 0.000000 0.000000 0.000000 10.000000 
Rope1_Seg06 0.000000 0.000000 0.000000 0.000000 0.000000 0.000000 10.000000 
Rope1_Seg07 0.000000 0.000000 0.000000 0.000000 0.000000 0.000000 10.000000 
Rope1_Seg09 0.000000 0.000000 0.000000 0.000000 0.000000 0.000000 10.000000 
L_mid_hand01 0.000000 0.000000 0.000000 0.000000 0.000000 0.000000 10.000000 
L_mid_hand02 0.000000 0.000000 0.000000 0.000000 0.000000 0.000000 10.000000 
L_mid_hand03 0.000000 0.000000 0.000000 0.000000 0.000000 0.000000 10.000000 
null_rope02_connect 0.000000 0.000000 0.000000 0.000000 0.000000 0.000000 10.000000 
Rope2_Seg01 0.000000 0.000000 0.000000 0.000000 0.000000 0.000000 10.000000 
Rope2_Seg02 0.000000 0.000000 0.000000 0.000000 0.000000 0.000000 10.000000 
Rope2_Seg03 0.000000 0.000000 0.000000 0.000000 0.000000 0.000000 10.000000 
Rope2_Seg04 0.000000 0.000000 0.000000 0.000000 0.000000 0.000000 10.000000 
Rope2_Seg05 0.000000 0.000000 0.000000 0.000000 0.000000 0.000000 10.000000 
Rope2_Seg06 0.000000 0.000000 0.000000 0.000000 0.000000 0.000000 10.000000 
Rope2_Seg07 0.000000 0.000000 0.000000 0.000000 0.000000 0.000000 10.000000 
Rope2_Seg09 0.000000 0.000000 0.000000 0.000000 0.000000 0.000000 10.000000 
R_mid_hand01 0.000000 0.000000 0.000000 0.000000 0.000000 0.000000 10.000000 
R_mid_hand02 0.000000 0.000000 0.000000 0.000000 0.000000 0.000000 10.000000 
R_mid_hand03 0.000000 0.000000 0.000000 0.000000 0.000000 0.000000 10.000000 
spine02 0.000000 0.000000 0.000000 0.000000 0.000000 0.000000 10.000000 
spine03 0.000000 0.000000 0.000000 0.000000 0.000000 0.000000 10.000000 
pelvis 0.000000 0.000000 0.000000 0.000000 0.000000 0.000000 10.000000 
null_rope03_connect 0.000000 0.000000 0.000000 0.000000 0.000000 0.000000 10.000000 
null_rope04_connect 0.000000 0.000000 0.000000 0.000000 0.000000 0.000000 10.000000 
Rope3_Seg01 0.000000 0.000000 0.000000 0.000000 0.000000 0.000000 10.000000 
Rope3_Seg02 0.000000 0.000000 0.000000 0.000000 0.000000 0.000000 10.000000 
Rope3_Seg03 0.000000 0.000000 0.000000 0.000000 0.000000 0.000000 10.000000 
Rope3_Seg04 0.000000 0.000000 0.000000 0.000000 0.000000 0.000000 10.000000 
Rope3_Seg05 0.000000 0.000000 0.000000 0.000000 0.000000 0.000000 10.000000 
Rope3_Seg06 0.000000 0.000000 0.000000 0.000000 0.000000 0.000000 10.000000 
Rope3_Seg07 0.000000 0.000000 0.000000 0.000000 0.000000 0.000000 10.000000 
Rope3_Seg08 0.000000 0.000000 0.000000 0.000000 0.000000 0.000000 10.000000 
Rope3_Seg09 0.000000 0.000000 0.000000 0.000000 0.000000 0.000000 10.000000 
R_rear_hand01 0.000000 0.000000 0.000000 0.000000 0.000000 0.000000 10.000000 
R_rear_hand02 0.000000 0.000000 0.000000 0.000000 0.000000 0.000000 10.000000 
R_rear_hand03 0.000000 0.000000 0.000000 0.000000 0.000000 0.000000 10.000000 
Rope4_Seg01 0.000000 0.000000 0.000000 0.000000 0.000000 0.000000 10.000000 
Rope4_Seg02 0.000000 0.000000 0.000000 0.000000 0.000000 0.000000 10.000000 
Rope4_Seg03 0.000000 0.000000 0.000000 0.000000 0.000000 0.000000 10.000000 
Rope4_Seg04 0.000000 0.000000 0.000000 0.000000 0.000000 0.000000 10.000000 
Rope4_Seg05 0.000000 0.000000 0.000000 0.000000 0.000000 0.000000 10.000000 
Rope4_Seg06 0.000000 0.000000 0.000000 0.000000 0.000000 0.000000 10.000000 
Rope4_Seg07 0.000000 0.000000 0.000000 0.000000 0.000000 0.000000 10.000000 
Rope4_Seg08 0.000000 0.000000 0.000000 0.000000 0.000000 0.000000 10.000000 
Rope4_Seg09 0.000000 0.000000 0.000000 0.000000 0.000000 0.000000 10.000000 
L_rear_hand01 0.000000 0.000000 0.000000 0.000000 0.000000 0.000000 10.000000 
L_rear_hand02 0.000000 0.000000 0.000000 0.000000 0.000000 0.000000 10.000000 
L_rear_hand03 0.000000 0.000000 0.000000 0.000000 0.000000 0.000000 10.000000 
#Beginning of Data. Separated by tabs
#Fr	Tx	Ty	Tz	Rx	Ry	Rz	SF
[MASTER]
21 517.569397 3560.108398 2480.787354 0.001660 0.001660 0.001660 4369.960449
22 528.491028 3760.798096 2513.585693 0.001660 0.001660 0.001660 4554.230957
[root]
21 78.676025 -7.788138 719.116028 -105.393013 -22.377968 -91.172119 723.448975
22 66.419823 -21.418209 516.132629 -106.210320 -22.440166 -90.991074 520.829407
[chest]
21 -84.512650 -34.090519 0.000000 3.989013 -0.294447 -174.442429 91.129311
22 -84.512650 -34.090519 0.000000 4.160043 -0.337410 -174.171600 91.129311
[L_mid_tent01]
21 27.299526 22.177504 -249.918243 -1.562441 25.412930 67.465553 252.381134
22 27.299528 22.177504 -249.918243 -1.448329 26.432808 67.513359 252.381134
[R_mid_tent01]
21 23.228794 24.509907 226.238495 173.279083 -23.685257 57.162807 228.744751
22 23.228794 24.509907 226.238495 173.422165 -23.480925 56.699276 228.744751
[spine01]
21 -0.361383 -0.195265 0.000000 0.001845 0.001451 13.654368 0.410763
22 -0.361383 -0.195265 0.000000 0.001845 0.001451 13.654368 0.410763
[Bip01_Neck]
21 165.484543 71.581718 0.000119 176.643677 -1.657967 43.431911 180.302734
22 165.484543 71.581718 0.000119 176.643677 -1.657967 43.431911 180.302734
[L_humerus]
21 -13.983130 -135.272980 -120.471481 102.257423 81.997513 -167.208435 181.680161
22 -13.983130 -135.272980 -120.471481 104.749008 81.917107 -164.691223 181.680161
[R_humerus]
21 -13.983309 -135.273102 125.287651 -170.706299 -71.211189 -94.344673 184.909012
22 -13.983309 -135.273102 125.287651 -171.545013 -69.281204 -93.457672 184.909012
[weapon_bone]
21 235.964890 -300.705902 0.000000 0.000000 -89.951546 -128.212341 382.234833
22 235.964890 -300.705902 0.000000 0.000000 -89.951546 -128.212341 382.234833
[Bip01_Head]
21 213.610825 185.252975 17.751001 4.438949 -1.362266 -43.898827 283.307861
22 213.567642 185.373306 16.196053 4.439517 -1.244604 -43.899090 283.260864
[eye_left_bone]
21 -24.626970 125.451866 -64.772606 0.000000 -90.000000 -99.840431 143.318359
22 -24.626970 125.451866 -64.772606 0.000000 -90.000000 -99.840431 143.318359
[eye_right_bone]
21 -24.626970 125.451866 64.327362 0.000000 -89.965736 80.156380 143.117676
22 -24.626970 125.451866 64.327362 0.000000 -89.965736 80.156380 143.117676
[L_forearm]
21 322.776093 0.000000 -0.000119 0.000119 -0.002344 -95.807457 322.776093
22 322.776093 0.000000 -0.000119 0.000119 -0.002344 -95.807457 322.776093
[L_front_hand]
21 241.149185 -0.042021 -3.300071 -175.469650 -1.835704 -27.422251 241.171753
22 241.149185 -0.042021 -3.300071 -175.357941 -1.833899 -27.425053 241.171753
[L_weapon_bone]
21 156.183838 0.000000 0.000000 0.000014 0.000007 0.000001 156.183838
22 156.183838 0.000000 0.000000 0.000014 0.000007 0.000001 156.183838
[L_front_hand01_01]
21 86.095154 20.947098 -0.655860 -0.307662 -0.512638 68.898659 88.609184
22 86.095154 20.947098 -0.655860 -0.320916 -0.506937 70.186234 88.609184
[L_front_hand02_01]
21 86.935165 -11.437475 24.513514 145.311661 -56.611855 -50.692310 91.046425
22 86.935165 -11.437475 24.513514 146.956528 -57.330299 -52.653671 91.046425
[L_front_hand03_01]
21 86.637497 -14.123976 -20.424902 -145.445221 54.832184 -52.559975 90.126129
22 86.637497 -14.123976 -20.424902 -146.987778 55.547066 -54.435093 90.126129
[L_front_hand01_02]
21 71.020905 -0.000179 0.000030 0.000323 -0.002325 -105.812233 71.020905
22 71.020905 -0.000179 0.000030 0.000326 -0.002324 -105.969223 71.020905
[L_front_hand02_02]
21 71.020927 -0.000119 0.000060 0.000323 -0.002325 -105.812233 71.020927
22 71.020927 -0.000119 0.000060 0.000326 -0.002324 -105.969223 71.020927
[L_front_hand03_02]
21 71.020905 -0.000060 0.000060 0.000323 -0.002325 -105.812233 71.020905
22 71.020905 -0.000060 0.000060 0.000326 -0.002324 -105.969223 71.020905
[R_forearm]
21 322.776428 -0.000060 0.000030 0.208832 -0.036132 -81.091934 322.776428
22 322.776428 -0.000060 0.000030 0.209569 -0.039212 -80.093285 322.776428
[R_front_hand]
21 238.847015 -0.006795 2.210259 15.673515 -10.646774 -26.313528 238.857239
22 238.847015 -0.006795 2.210259 16.299091 -10.642543 -26.314386 238.857239
[R_weapon_bone]
21 155.664093 0.002503 -0.000030 0.003487 0.001180 -90.988930 155.664078
22 155.664093 0.002503 -0.000030 0.003487 0.001180 -90.988930 155.664078
[R_front_hand01_01]
21 87.624611 14.231146 22.918642 -147.368515 -57.499996 53.246597 91.683487
22 87.624611 14.231146 22.918642 -150.820572 -58.784592 57.311871 91.683487
[R_front_hand02_01]
21 89.356956 14.367283 -19.491137 147.772629 55.873177 55.617874 92.579636
22 89.356956 14.367283 -19.491137 151.027084 57.144753 59.518578 92.579636
[R_front_hand03_01]
21 87.286232 -22.307278 -0.143439 0.124412 -0.437303 -70.732681 90.091743
22 87.286232 -22.307278 -0.143439 0.144811 -0.432555 -73.232849 90.091743
[R_front_hand01_02]
21 71.020905 0.000060 0.000119 0.002323 -0.000334 106.381714 71.020905
22 71.020905 0.000060 0.000119 0.002323 -0.000334 106.381714 71.020905
[R_front_hand02_02]
21 71.020844 -0.000030 -0.000119 0.002323 -0.000334 106.381714 71.020836
22 71.020844 -0.000030 -0.000119 0.002323 -0.000334 106.381714 71.020836
[R_front_hand03_02]
21 71.020905 0.000000 0.000030 0.002323 -0.000334 106.381714 71.020905
22 71.020905 0.000000 0.000030 0.002323 -0.000334 106.381714 71.020905
[null_rope01_connect]
21 328.732483 0.000000 -0.000238 -144.083939 -49.006496 -170.545380 328.732483
22 328.732483 0.000000 -0.000238 -144.029831 -47.330170 -170.387817 328.732483
[Rope1_Seg01]
21 0.000000 0.000000 0.000000 64.686684 -47.959213 -137.462006 0.000000
22 0.000000 0.000000 0.000000 68.313057 -51.482796 -141.724533 0.000000
[Rope1_Seg02]
21 139.999863 -0.000179 0.000000 5.396786 -4.857725 -14.396892 139.999863
22 139.999863 -0.000179 0.000000 2.698379 -4.419310 -9.375406 139.999863
[Rope1_Seg03]
21 139.999924 0.000060 -0.000060 26.867153 -14.659666 -37.860081 139.999924
22 139.999924 0.000060 -0.000060 11.177770 -11.645787 -23.169546 139.999924
[Rope1_Seg04]
21 139.999924 -0.000060 -0.000119 29.736376 -24.638279 -29.014832 139.999924
22 139.999924 -0.000060 -0.000119 31.334194 -23.089184 -41.240128 139.999924
[Rope1_Seg05]
21 139.999832 0.000119 -0.000060 7.625135 -16.316833 -5.039450 139.999832
22 139.999832 0.000119 -0.000060 10.508759 -18.636049 -10.497260 139.999832
[Rope1_Seg06]
21 139.999954 0.000119 -0.000060 5.043895 -28.402117 -2.337564 139.999954
22 139.999954 0.000119 -0.000060 4.270391 -24.264397 -1.473527 139.999954
[Rope1_Seg07]
21 139.999985 0.000060 0.000000 -1.649429 -23.384912 -0.490345 139.999985
22 139.999985 0.000060 0.000000 -1.957839 -27.462679 0.184839 139.999985
[Rope1_Seg09]
21 121.602913 0.000119 -0.000089 -89.793175 -1.359789 0.847147 121.602913
22 121.602913 0.000119 -0.000089 -89.793175 -1.359789 0.847147 121.602913
[L_mid_hand01]
21 103.859421 1.038730 8.195221 112.678780 -49.980732 -18.276028 104.187431
22 103.859421 1.038730 8.195221 114.394844 -53.111446 -20.468834 104.187431
[L_mid_hand02]
21 105.572853 -4.139662 -10.864139 -152.571289 36.560638 -48.342640 106.211075
22 105.572853 -4.139662 -10.864139 -154.909470 38.072212 -52.197887 106.211075
[L_mid_hand03]
21 104.641464 17.579376 -3.913581 -11.926215 14.597148 53.941067 106.179977
22 104.641464 17.579376 -3.913581 -11.031651 15.280054 57.403908 106.179977
[null_rope02_connect]
21 328.732849 0.000179 -0.000119 -70.141182 72.723358 55.791206 328.732849
22 328.732849 0.000179 -0.000119 -66.894402 72.666153 58.675739 328.732849
[Rope2_Seg01]
21 0.000119 0.000181 0.000000 -52.371155 26.040407 38.069328 0.000217
22 0.000121 0.000183 0.000000 -44.333149 21.147556 58.221420 0.000219
[Rope2_Seg02]
21 139.999741 -0.000060 -0.000119 -1.857294 2.745699 6.367816 139.999756
22 139.999741 -0.000060 -0.000119 0.156563 4.436953 2.081634 139.999756
[Rope2_Seg03]
21 140.000107 0.000030 0.000000 -1.128629 1.967429 3.633510 140.000107
22 140.000107 0.000030 0.000000 0.011030 0.862411 -1.383131 140.000107
[Rope2_Seg04]
21 139.999802 0.000000 -0.000060 -2.563059 -2.650126 12.694662 139.999802
22 139.999802 0.000000 -0.000060 -0.122949 8.954258 8.875837 139.999802
[Rope2_Seg05]
21 139.999985 -0.000060 0.000119 -0.801319 -2.012100 7.604378 139.999985
22 139.999985 -0.000060 0.000119 -1.084339 8.605971 9.488912 139.999985
[Rope2_Seg06]
21 139.999893 -0.000030 -0.000119 -0.216497 -1.074134 4.263100 139.999893
22 139.999893 -0.000030 -0.000119 -1.032526 4.097875 4.593348 139.999893
[Rope2_Seg07]
21 139.999893 0.000060 -0.000060 -0.062498 -0.654870 2.569089 139.999893
22 139.999893 0.000060 -0.000060 -0.834423 2.611685 3.050210 139.999893
[Rope2_Seg09]
21 121.338966 0.000089 -0.000060 33.793236 -1.359788 -0.847141 121.338966
22 121.338966 0.000089 -0.000060 33.793236 -1.359788 -0.847141 121.338966
[R_mid_hand01]
21 104.680779 11.144459 -10.335981 -37.204075 31.906813 37.576267 105.778534
22 104.680779 11.144459 -10.335981 -36.871490 32.306072 38.202847 105.778534
[R_mid_hand02]
21 104.070427 2.443552 8.231699 70.367462 -42.427391 14.067811 104.424065
22 104.070427 2.443552 8.231699 70.157990 -43.050732 14.375076 104.424065
[R_mid_hand03]
21 106.028137 -11.221827 -5.996406 -169.893616 12.226658 -47.211018 106.788818
22 106.028137 -11.221827 -5.996406 -170.040375 12.343992 -47.884892 106.788818
[spine02]
21 129.756927 0.001550 0.000119 -1.023899 -3.926964 6.770991 129.756927
22 129.756927 0.001550 0.000119 -1.023899 -3.926965 6.770993 129.756927
[spine03]
21 78.613792 0.087309 -4.898836 1.040680 4.146419 4.212375 78.766335
22 78.613792 0.087310 -4.898835 1.040680 4.146420 4.212376 78.766335
[pelvis]
21 169.435242 0.051022 0.000000 0.019518 -0.190233 -10.721436 169.435257
22 169.435242 0.051022 0.000000 0.019518 -0.190233 -10.721436 169.435257
[null_rope03_connect]
21 -1.257226 -2.466202 137.391083 -153.942505 -73.819908 -107.663170 137.418976
22 -1.257226 -2.466202 137.391083 -154.596893 -73.080956 -106.928833 137.418976
[null_rope04_connect]
21 -1.259640 -2.480268 -137.844437 -153.942505 -73.819908 -107.663170 137.872513
22 -1.259640 -2.480268 -137.844437 -154.596893 -73.080956 -106.928833 137.872513
[Rope3_Seg01]
21 -0.000016 -0.000034 -0.000153 -157.976089 -43.570568 -44.682961 0.000157
22 -0.000015 -0.000031 -0.000153 -156.970474 -42.053364 -44.632198 0.000157
[Rope3_Seg02]
21 139.999924 -0.000119 0.000060 20.482960 -24.733313 -5.471008 139.999924
22 139.999924 -0.000119 0.000060 23.618216 -27.731266 -3.255976 139.999924
[Rope3_Seg03]
21 139.999924 -0.000119 0.000119 22.300350 -18.164799 8.892236 139.999924
22 139.999924 -0.000119 0.000119 21.949825 -18.909082 11.280907 139.999924
[Rope3_Seg04]
21 139.999924 0.000119 0.000000 16.405863 -13.720006 5.966636 139.999924
22 139.999924 0.000119 0.000000 14.038720 -12.717214 8.907063 139.999924
[Rope3_Seg05]
21 139.999924 -0.000238 0.000060 39.950325 -34.415268 8.848982 139.999924
22 139.999924 -0.000238 0.000060 24.270466 -27.858557 15.731473 139.999924
[Rope3_Seg06]
21 139.999893 -0.000119 -0.000060 17.034771 -13.593195 20.365831 139.999893
22 139.999893 -0.000119 -0.000060 11.604101 -13.050615 19.248537 139.999893
[Rope3_Seg07]
21 139.999771 0.000060 -0.000119 4.611917 -2.099610 9.601957 139.999771
22 139.999771 0.000060 -0.000119 3.673229 -3.086826 9.278558 139.999771
[Rope3_Seg08]
21 139.999985 -0.000060 0.000000 2.122693 -0.647866 4.858593 139.999985
22 139.999985 -0.000060 0.000000 1.805287 -1.252787 4.831031 139.999985
[Rope3_Seg09]
21 90.185997 -0.000179 -0.000060 89.793228 -1.359877 -0.847183 90.185997
22 90.185997 -0.000179 -0.000060 89.793228 -1.359877 -0.847183 90.185997
[R_rear_hand01]
21 103.366196 -6.073594 -10.757982 -164.972809 19.789427 -40.983841 104.101845
22 103.366196 -6.073594 -10.757982 -165.575058 20.224260 -42.745808 104.101845
[R_rear_hand02]
21 100.509819 12.039542 -7.992327 -30.544968 25.097786 38.729183 101.543350
22 100.509819 12.039542 -7.992327 -29.842955 25.960018 40.362492 101.543350
[R_rear_hand03]
21 101.539970 5.215704 5.435467 82.376854 -41.657902 8.948386 101.819031
22 101.539970 5.215704 5.435467 82.169098 -43.351929 9.256878 101.819031
[Rope4_Seg01]
21 0.000000 0.000029 0.000000 46.219509 -25.198462 -92.094948 0.000029
22 0.000000 0.000030 0.000000 49.922302 -31.425533 -99.578987 0.000030
[Rope4_Seg02]
21 139.999985 0.000060 0.000119 4.500092 -41.573021 6.955953 139.999985
22 139.999985 0.000060 0.000119 8.520723 -39.666920 4.037645 139.999985
[Rope4_Seg03]
21 139.999924 0.000000 -0.000238 26.638664 -35.379211 10.002050 139.999924
22 139.999924 0.000000 -0.000238 33.699280 -34.005756 9.478880 139.999924
[Rope4_Seg04]
21 139.999985 0.000000 0.000119 19.493429 -9.418685 9.443404 139.999985
22 139.999985 0.000000 0.000119 22.743994 -8.205047 10.295156 139.999985
[Rope4_Seg05]
21 139.999802 -0.000060 -0.000119 20.686295 -5.077447 13.621178 139.999802
22 139.999802 -0.000060 -0.000119 20.382462 -2.615068 13.843196 139.999802
[Rope4_Seg06]
21 139.999924 0.000000 0.000060 17.889463 0.595322 18.691469 139.999924
22 139.999924 0.000000 0.000060 16.757017 3.786584 19.410952 139.999924
[Rope4_Seg07]
21 139.999802 0.000000 0.000000 6.750494 3.583771 10.532014 139.999802
22 139.999802 0.000000 0.000000 6.134749 5.644621 11.374724 139.999802
[Rope4_Seg08]
21 139.999924 0.000000 0.000119 1.142817 2.542127 5.446170 139.999924
22 139.999924 0.000000 0.000119 0.714256 3.650150 5.875847 139.999924
[Rope4_Seg09]
21 90.185791 0.000060 0.000060 -135.617828 2.228885 0.850567 90.185791
22 90.185791 0.000060 0.000060 -135.617828 2.228885 0.850567 90.185791
[L_rear_hand01]
21 101.696655 -8.392275 -7.654577 -24.658646 -30.887184 128.783096 102.329041
22 101.696655 -8.392275 -7.654577 -22.991789 -32.088039 125.593956 102.329041
[L_rear_hand02]
21 102.726799 -1.568258 5.773216 80.302322 53.966492 168.267426 102.900848
22 102.726799 -1.568258 5.773216 79.542946 56.888870 167.348526 102.900848
[L_rear_hand03]
21 104.552910 9.721220 -10.420293 -169.691238 -22.530384 -125.995583 105.519653
22 104.552910 9.721220 -10.420293 -170.919922 -23.031252 -122.815834 105.519653
